<svg xmlns="http://www.w3.org/2000/svg" width="200" height="200" viewBox="0 0 200 200">
  <rect width="200" height="200" rx="44" fill="#E0F2FE"/>

  <!-- Baby bottle with nipple + milk -->
  <g fill="none" stroke="#0284C7" stroke-width="10" stroke-linecap="round" stroke-linejoin="round">
    <!-- Nipple -->
    <path d="M92 36c0-8 16-8 16 0"/>
    <path d="M86 48h28"/>

    <!-- Bottle neck -->
    <path d="M82 60h36"/>

    <!-- Bottle body -->
    <path d="M76 72v76a24 24 0 0 0 24 24h0a24 24 0 0 0 24-24V72"/>

    <!-- Measurement lines -->
    <path d="M92 92h16"/>
    <path d="M92 114h16"/>
    <path d="M92 136h16"/>
  </g>

  <!-- Milk fill (stylized) -->
  <path
    d="M84 132c10 8 22 8 32 0v18a16 16 0 0 1-16 16h0a16 16 0 0 1-16-16z"
    fill="#FFFFFF"
    opacity="0.85"
  />
</svg>
